<svg enable-background="new 0 0 140 140" height="512" viewBox="0 0 140 140" width="512" xmlns="http://www.w3.org/2000/svg"><circle cx="70" cy="70" fill="#344d5b" r="64"/><path d="m133.9983368 68.9672775-30.8294678-30.8295898c-6.8000488-2.0400391-13.9500732 1.6000977-16.380127 8.1699219-.5898438-.0400391-1.1699219-.0698242-1.7700195-.0698242h-29.1599121c-9.7199707 0-18.0100098 6.0200195-21.3900146 14.5498047l-3.4599609-3.5c-.0100098 0-.0200195-.0100098-.0300293-.0200195l-.039978-.0498047v.0200195c-.5300293-.4902344-1.3099976-.7802734-2.2000122-.7402344-1.1699829.0102539-2.5999756.5200195-3.1500244 1.6401367-.2399902.4799805-.5 1.4699707.4500122 2.75.1300049.1699219.2800293.3300781.4400024.4899902l2.6699829 2.6699219c-.7299805.8100586-1.8499756 1.5400391-3.5700073 1.7800293-.3699951.0500488-.6199951.3798828-.5699463.7399902.0199585.1599121.0999756.2900391.2099609.4001465l.0100098.0097656 7.710022 7.5200195c.4299927 5.4599609 2.789978 10.3701172 6.3800049 14.0900879l-.0200195-.0100098.210022.2199707c.039978.0400391.0699463.0700684.1099854.1101074l8.8999634 8.9499512v4.5700684l30.8803101 30.8801193c8.4736328-1.2531738 16.833252-4.223877 24.5583496-9.0593185 19.5793457-12.2558594 30.2370605-33.3679199 30.0424805-54.8884277v-.3498535c-.0002444-.0144043-.0013431-.0288086-.0015872-.0429688z" opacity=".1"/><path d="m86.502449 47.0976181-1.1873627 3.9439659 12.8121719 3.8572235 5.0446167-16.756237c-7.075981-2.130291-14.5391311 1.8790588-16.6694259 8.9550476z" fill="#f7be56"/><path d="m25.6610928 67.1439819c-.3266487 0-.6102009-.2413177-.6550179-.5739975-.0491276-.3624191.2051239-.6955261.5679684-.7437897 2.4140854-.3240662 3.6543102-1.6431503 4.2800255-2.7553864-1.5496349-.3981819-2.9820557-1.0682831-3.8120327-2.1831055-.9523621-1.279007-.694664-2.2740326-.456789-2.7536621.5576286-1.1204224 1.9848766-1.6310806 3.1527061-1.639267 1.2264347-.0508499 2.2477455.502037 2.6933289 1.3669205.5800362 1.1243019.6507072 2.7183228.2430458 4.2214165 1.8943825.276226 3.8370247.2464943 4.8643723.159874.3559494-.0262833.6843185.2400322.7144852.604599.0310249.3641396-.2395973.6843224-.6041679.71492-.1878853.0155144-2.784687.2202072-5.446991-.212883-.0284424.0590401-.057745.1172142-.0879097.1749611-1.0463066 2.006424-2.9518909 3.2897415-5.3642521 3.6133728-.0301667.0043107-.0594693.0060273-.0887719.0060273zm3.106163-9.3258133c-.0060329 0-.012928 0-.0198231 0-.887722.0068932-1.7185593.3874092-1.9771194.9058189-.1827164.3684502-.070673.83041.3335419 1.3733864.6455364.8670349 1.878006 1.4100113 3.2681942 1.7401047.386116-1.3203773.2714882-2.6148987-.1172142-3.3690338-.2473546-.4796257-.9265042-.6502762-1.4875794-.6502762z" fill="#64798a"/><g fill="#f7be56"><path d="m48.5154495 93.6598511v8.7691116h12.7064934l5.5578728-8.7691116z"/><path d="m74.0970001 93.6598511 5.5578766 8.7691116h12.7064896v-8.7691116z"/><path d="m115 77.5158157-12.2141724 3.3482819v-19.8648033l12.2141724 3.3482857z"/></g><path d="m85.0205002 95.628479h-29.1641808c-12.7025375 0-22.9999771-10.2974396-22.9999771-22.9999771v-3.3936157c0-12.7025337 10.2974396-22.9999771 22.9999771-22.9999771h29.1641808c12.7025299 0 22.9999771 10.2974434 22.9999771 22.9999771v3.3936157c0 12.7025375-10.2974472 22.9999771-22.9999771 22.9999771z" fill="#fcd462"/><path d="m95.2080002 58.1403923c-1.2951431-.3123398-2.4325943.8250351-2.1203842 2.120163.1467361.6087227.6459503 1.1079292 1.2546616 1.2547073 1.2951202.3122864 2.4325485-.8248901 2.1203918-2.1200256-.1467285-.6087647-.6459275-1.1080361-1.2546692-1.2548447z" fill="#ededed"/><path d="m59.25 53.4969025v.0000038c0 .7742233.6276321 1.4018517 1.4018555 1.4018517h19.1962891c.7742233 0 1.4018555-.6276283 1.4018555-1.4018517v-.0000038c0-.7742233-.6276321-1.4018555-1.4018555-1.4018555h-19.1962891c-.7742234 0-1.4018555.6276321-1.4018555 1.4018555z" fill="#f7be56"/></svg>